# xmcd
#
# Track frame offsets:
#     150
#     18180
#     36860
#     53905
#
# Disc length: 903 seconds
#
# Revision: 5
# Processed by: cddbd v1.5.2PL0 Copyright (c) Steve Scherf et al.
# Submitted via: BonkEnc v0.9
#
DISCID=28038504
DTITLE=Meredith Brooks / Bitch
DYEAR=1997
DGENRE=Rock
TTITLE0=Bitch (Edit)
TTITLE1=Bitch (Transistor Mix)
TTITLE2=Bitch (Madgroove Mix)
TTITLE3=Bitch (E-Team Funky Bitch Edit)
EXTD=
EXTT0=
EXTT1=
EXTT2=
EXTT3=
PLAYORDER=
.
